<svg aria-label="Blue Desert Learning and Retreats logo dark theme" role="img" viewBox="40 100 620 110" xmlns="http://www.w3.org/2000/svg">
<path d="m77 145c43-29 83-43 127-19 27 15 40 27 51 17-5 17-20 18-44 8-51-21-83-35-134-6z" fill="#d7a153"/>
<path d="m103 157c34-7 69-10 112 5 28 10 45 10 70 5-37 17-76 21-121 6-23-8-41-15-61-16z" fill="#46b8bc"/>
<path d="m51 172c51-14 87-15 132-1 47 15 77 18 118 8-51 23-105 30-159 19-34-7-55-20-91-26z" fill="#66aaff"/>
<g transform="translate(305 119)">
<g fill="#f5f8ff">
<g transform="translate(1.01 39.3)">
<path d="m0.3438 0c-0.1055 0-0.1562-0.05078-0.1562-0.1562v-0.4531c0-0.1016 0.08594-0.1562 0.2656-0.1562 0.5938 0 1.25-0.0625 1.969-0.1875 2.32-0.3828 3.484-1.18 3.484-2.391v-20c-0.1367-1.625-0.8828-2.504-2.234-2.641-0.3984-0.05078-0.8438-0.07812-1.344-0.07812h-1.078c-0.1055 0-0.1562-0.05078-0.1562-0.1562v-0.4688c0-0.1016 0.05078-0.1562 0.1562-0.1562l0.8438-0.01562 3.25-0.01562 6.75-0.2031c7.238 0 10.86 2.137 10.86 6.406 0 1.805-0.9375 3.309-2.812 4.516-0.293 0.1875-0.543 0.3281-0.75 0.4219-0.2109 0.08594-0.3242 0.1328-0.3438 0.1406 1.664 0.9375 2.973 1.992 3.922 3.156 0.957 1.156 1.438 2.547 1.438 4.172 0 3.449-1.633 5.852-4.891 7.203-1.68 0.7109-3.508 1.062-5.484 1.062zm9.594-14.8c-0.168 0-0.25 0.07422-0.25 0.2188v10.39c0 0.8984 0.4219 1.617 1.266 2.156 0.8438 0.543 1.75 0.8125 2.719 0.8125 1.875 0 3.469-0.6641 4.781-2 1.312-1.332 1.969-2.973 1.969-4.922 0-1.957-0.7031-3.555-2.109-4.797-1.406-1.238-3.195-1.859-5.359-1.859zm-0.2812-1.531c0 0.2422 0.1445 0.3594 0.4375 0.3594h4.656c1.219 0 2.238-0.4453 3.062-1.344 0.832-0.8945 1.25-1.898 1.25-3.016 0-1.988-0.5625-3.426-1.688-4.312-1.125-0.8945-2.625-1.344-4.5-1.344-0.5625 0.04297-0.9609 0.0625-1.188 0.0625-0.2188 0-0.4492-0.003906-0.6875-0.01562-0.2422-0.007812-0.4805 0.007812-0.7188 0.04688-0.2422 0.04297-0.4062 0.125-0.5 0.25-0.08594 0.125-0.125 0.3359-0.125 0.625z"/>
</g>
<g transform="translate(35.18 39.3)">
<path d="m0.9062 0c-0.09375 0-0.1406-0.05078-0.1406-0.1562v-0.4531c0-0.1016 0.04688-0.1562 0.1406-0.1562h0.4531c1.094 0 2.039-0.2227 2.844-0.6719 0.332-0.1875 0.6016-0.4766 0.8125-0.875 0.2188-0.4062 0.3281-0.8516 0.3281-1.344v-20.08c0-0.7812-0.5078-1.379-1.516-1.797-0.7109-0.3008-1.461-0.4531-2.25-0.4531h-0.4219c-0.1055 0-0.1562-0.05078-0.1562-0.1562v-0.4531c0-0.1016 0.05078-0.1562 0.1562-0.1562h12.84c0.1016 0 0.1562 0.05469 0.1562 0.1562v0.4531c0 0.1055-0.05469 0.1562-0.1562 0.1562h-0.8125c-1.305 0-2.453 0.1836-3.453 0.5469-0.293 0.1055-0.4805 0.2773-0.5625 0.5156-0.08594 0.2305-0.125 0.625-0.125 1.188v21.05c0.01953 0.2109 0.1289 0.4141 0.3281 0.6094 0.207 0.1875 0.4414 0.2812 0.7031 0.2812h7.484c1.125 0 2.227-0.6641 3.312-2 0.2891-0.3516 0.6484-0.8203 1.078-1.406 0.4375-0.5938 0.707-0.9258 0.8125-1 0.3945-0.3008 0.5938-0.2969 0.5938 0.01562 0 0.08594-0.01562 0.1641-0.04688 0.2344l-2.859 5.609c-0.1172 0.2305-0.25 0.3438-0.4062 0.3438z"/>
</g>
<g transform="translate(66.44 39.3)">
<path d="m10.89-25.98c-2.125 0-3.188 0.8516-3.188 2.547v13.58c0 2.5 0.8281 4.547 2.484 6.141 1.656 1.586 3.781 2.375 6.375 2.375 2.688 0 4.895-0.7227 6.625-2.172 1.727-1.445 2.594-3.457 2.594-6.031v-12.06c0-1.195-0.1094-2.031-0.3281-2.5-0.543-1.25-1.766-1.875-3.672-1.875-0.1055 0-0.1562-0.05078-0.1562-0.1562v-0.4531c0-0.1016 0.05078-0.1562 0.1562-0.1562h9.328c0.09375 0 0.1406 0.05469 0.1406 0.1562v0.4531c0 0.1055-0.1367 0.1562-0.4062 0.1562-1.656 0-2.668 0.6484-3.031 1.938-0.07422 0.2109-0.1094 0.4141-0.1094 0.6094v12.42c0 5.555-2.121 9.125-6.359 10.72-1.438 0.5391-2.867 0.8125-4.281 0.8125-5.062 0-8.797-1.328-11.2-3.984-1.242-1.363-1.859-3.051-1.859-5.062v-15.17c0-1.082-0.6523-1.789-1.953-2.125-0.375-0.1016-0.6992-0.1562-0.9688-0.1562-0.2617 0-0.3906-0.05078-0.3906-0.1562v-0.4531c0-0.1016 0.03906-0.1562 0.125-0.1562h10.28c0.1016 0 0.1562 0.05469 0.1562 0.1562v0.4531c0 0.1055-0.1211 0.1562-0.3594 0.1562z"/>
</g>
<g transform="translate(105.9 39.3)">
<path d="m0.125-0.1562v-0.5312c0-0.09375 0.05078-0.1406 0.1562-0.1406h0.4219c0.5312-0.03906 1.07-0.0625 1.625-0.0625 0.5625-0.007813 1.066-0.07812 1.516-0.2031 1.039-0.3125 1.562-1.07 1.562-2.281v-19.98c0-1.258-0.7422-2.055-2.219-2.391-0.418-0.09375-0.8398-0.1719-1.266-0.2344h-0.4062c-0.1055 0-0.1562-0.05078-0.1562-0.1562v-0.4531c0-0.1016 0.05078-0.1562 0.1562-0.1562h18.03c0.2266 0 0.3945 0.04297 0.5 0.125 0.1016 0.08594 0.1641 0.2656 0.1875 0.5469l0.3438 5.5c0 0.125-0.09375 0.1875-0.2812 0.1875s-0.3281-0.05469-0.4219-0.1719c-0.07422-0.125-0.1719-0.582-0.2969-1.375-0.1172-0.8008-0.3359-1.469-0.6562-2-0.3125-0.5312-0.8672-0.8633-1.656-1h-7.922c-0.1562 0-0.2344 0.08594-0.2344 0.25v9.797c0 0.125 0.0625 0.1875 0.1875 0.1875h6.562c1.688 0 2.531-0.9844 2.531-2.953 0-0.1016 0.05078-0.1562 0.1562-0.1562h0.4531c0.1016 0 0.1562 0.05469 0.1562 0.1562v8.109c0 0.1055-0.05469 0.1562-0.1562 0.1562h-0.4531c-0.1055 0-0.1562-0.05078-0.1562-0.1562 0-1.863-0.543-2.941-1.625-3.234-0.3047-0.07031-0.625-0.1094-0.9688-0.1094h-6.5c-0.125 0-0.1875 0.0625-0.1875 0.1875v9.234c0 0.9492 0.4297 1.484 1.297 1.609 0.2578 0.04297 0.5234 0.0625 0.7969 0.0625h6.328c1.301 0 2.312-0.5781 3.031-1.734 0.5195-0.8203 0.8359-1.766 0.9531-2.828 0.03125-0.3516 0.2188-0.5312 0.5625-0.5312 0.1562 0 0.2344 0.08594 0.2344 0.25l-0.6406 6.375c-0.07422 0.1797-0.1641 0.2656-0.2656 0.2656h-21.12c-0.1055 0-0.1562-0.05078-0.1562-0.1562z"/>
</g>
<g transform="translate(137.7 39.3)"/>
<g transform="translate(155.9 39.3)">
<path d="m0.8594-26.64c0-0.1016 0.04688-0.1562 0.1406-0.1562h0.4219l6.094-0.1406c0.7266-0.01953 1.523-0.03125 2.391-0.03125h2.359c2.207 0 3.863 0.08594 4.969 0.25 1.102 0.1562 2.188 0.3516 3.25 0.5781 1.07 0.2188 2.211 0.7188 3.422 1.5 1.207 0.7812 2.254 1.73 3.141 2.844 1.875 2.375 2.812 4.945 2.812 7.703 0 2.762-0.7266 5.234-2.172 7.422-2.074 3.168-5.074 5.242-9 6.219-1.262 0.3047-2.547 0.4531-3.859 0.4531h-13.83c-0.09375 0-0.1406-0.05078-0.1406-0.1562v-0.5312c0-0.09375 0.04688-0.1406 0.1406-0.1406h0.4219c2.301 0 3.453-0.7344 3.453-2.203v-20.8c0-0.707-0.2734-1.238-0.8125-1.594-0.543-0.3633-1.156-0.5469-1.844-0.5469h-1.219c-0.09375 0-0.1406-0.04688-0.1406-0.1406zm8.188 0.5625c-0.3125 0-0.4688 0.1719-0.4688 0.5156v23.19c0 0.9375 0.875 1.43 2.625 1.469 0.5195 0.01172 1.066 0.01562 1.641 0.01562 4.031 0 7.195-1.129 9.5-3.391 2.312-2.27 3.469-5.285 3.469-9.047 0-3.758-1.07-6.82-3.203-9.188-2.125-2.375-4.93-3.562-8.406-3.562z"/>
</g>
<g transform="translate(195.2 39.3)">
<path d="m0.125-0.1562v-0.5312c0-0.09375 0.05078-0.1406 0.1562-0.1406h0.4219c0.5312-0.03906 1.07-0.0625 1.625-0.0625 0.5625-0.007813 1.066-0.07812 1.516-0.2031 1.039-0.3125 1.562-1.07 1.562-2.281v-19.98c0-1.258-0.7422-2.055-2.219-2.391-0.418-0.09375-0.8398-0.1719-1.266-0.2344h-0.4062c-0.1055 0-0.1562-0.05078-0.1562-0.1562v-0.4531c0-0.1016 0.05078-0.1562 0.1562-0.1562h18.03c0.2266 0 0.3945 0.04297 0.5 0.125 0.1016 0.08594 0.1641 0.2656 0.1875 0.5469l0.3438 5.5c0 0.125-0.09375 0.1875-0.2812 0.1875s-0.3281-0.05469-0.4219-0.1719c-0.07422-0.125-0.1719-0.582-0.2969-1.375-0.1172-0.8008-0.3359-1.469-0.6562-2-0.3125-0.5312-0.8672-0.8633-1.656-1h-7.922c-0.1562 0-0.2344 0.08594-0.2344 0.25v9.797c0 0.125 0.0625 0.1875 0.1875 0.1875h6.562c1.688 0 2.531-0.9844 2.531-2.953 0-0.1016 0.05078-0.1562 0.1562-0.1562h0.4531c0.1016 0 0.1562 0.05469 0.1562 0.1562v8.109c0 0.1055-0.05469 0.1562-0.1562 0.1562h-0.4531c-0.1055 0-0.1562-0.05078-0.1562-0.1562 0-1.863-0.543-2.941-1.625-3.234-0.3047-0.07031-0.625-0.1094-0.9688-0.1094h-6.5c-0.125 0-0.1875 0.0625-0.1875 0.1875v9.234c0 0.9492 0.4297 1.484 1.297 1.609 0.2578 0.04297 0.5234 0.0625 0.7969 0.0625h6.328c1.301 0 2.312-0.5781 3.031-1.734 0.5195-0.8203 0.8359-1.766 0.9531-2.828 0.03125-0.3516 0.2188-0.5312 0.5625-0.5312 0.1562 0 0.2344 0.08594 0.2344 0.25l-0.6406 6.375c-0.07422 0.1797-0.1641 0.2656-0.2656 0.2656h-21.12c-0.1055 0-0.1562-0.05078-0.1562-0.1562z"/>
</g>
<g transform="translate(226.9 39.3)">
<path d="m16.02-26.52c0.125 0 0.1875 0.1406 0.1875 0.4219l0.4844 4.031c0.05078 0.2617 0.07812 0.4297 0.07812 0.5 0 0.0625-0.1016 0.09375-0.2969 0.09375-0.1992 0-0.3242-0.02344-0.375-0.07812-0.04297-0.05078-0.08984-0.1328-0.1406-0.25-0.05469-0.125-0.1172-0.2578-0.1875-0.4062-0.0625-0.1562-0.1367-0.3125-0.2188-0.4688-0.2617-0.5703-0.6797-1.145-1.25-1.719-1.387-1.344-2.953-2.016-4.703-2.016-1.055 0-2.047 0.3438-2.984 1.031-0.9297 0.6797-1.391 1.484-1.391 2.422 0 0.9297 0.1719 1.734 0.5156 2.422 0.3516 0.6797 0.8125 1.309 1.375 1.891 0.5703 0.5859 1.223 1.141 1.953 1.672 0.7383 0.5312 1.484 1.07 2.234 1.609 2.008 1.406 3.441 2.605 4.297 3.594 1.32 1.543 2.039 3.277 2.156 5.203 0 2.148-0.8281 3.867-2.484 5.156-1.648 1.281-3.562 1.922-5.75 1.922-1.398 0-2.512-0.1484-3.344-0.4375-0.8242-0.2773-1.398-0.4844-1.719-0.6094-0.3125-0.125-0.543-0.1875-0.6875-0.1875-0.1484 0-0.2422 0.007812-0.2812 0.01562l-0.9219 0.1875c-0.168 0-0.2734-0.1289-0.3125-0.3906-0.3672-3.133-0.5469-4.801-0.5469-5 0-0.1953 0.01562-0.3281 0.04688-0.3906 0.03125-0.07031 0.1172-0.1094 0.2656-0.1094 0.3516 0 0.6758 0.5078 0.9688 1.516 1.32 2.844 3.523 4.266 6.609 4.266 1.414 0 2.625-0.4258 3.625-1.281 1.008-0.8633 1.516-1.984 1.516-3.359 0-2.207-1.312-4.258-3.938-6.156-0.75-0.5312-1.828-1.27-3.234-2.219-1.398-0.9453-2.516-1.895-3.359-2.844-1.305-1.469-1.953-3.102-1.953-4.906 0-1.801 0.7188-3.273 2.156-4.422 1.438-1.156 3.082-1.734 4.938-1.734 0.9688 0 2.031 0.168 3.188 0.5 1.156 0.3359 1.961 0.5586 2.422 0.6719z"/>
</g>
<g transform="translate(254.1 39.3)">
<path d="m0.125-0.1562v-0.5312c0-0.09375 0.05078-0.1406 0.1562-0.1406h0.4219c0.5312-0.03906 1.07-0.0625 1.625-0.0625 0.5625-0.007813 1.066-0.07812 1.516-0.2031 1.039-0.3125 1.562-1.07 1.562-2.281v-19.98c0-1.258-0.7422-2.055-2.219-2.391-0.418-0.09375-0.8398-0.1719-1.266-0.2344h-0.4062c-0.1055 0-0.1562-0.05078-0.1562-0.1562v-0.4531c0-0.1016 0.05078-0.1562 0.1562-0.1562h18.03c0.2266 0 0.3945 0.04297 0.5 0.125 0.1016 0.08594 0.1641 0.2656 0.1875 0.5469l0.3438 5.5c0 0.125-0.09375 0.1875-0.2812 0.1875s-0.3281-0.05469-0.4219-0.1719c-0.07422-0.125-0.1719-0.582-0.2969-1.375-0.1172-0.8008-0.3359-1.469-0.6562-2-0.3125-0.5312-0.8672-0.8633-1.656-1h-7.922c-0.1562 0-0.2344 0.08594-0.2344 0.25v9.797c0 0.125 0.0625 0.1875 0.1875 0.1875h6.562c1.688 0 2.531-0.9844 2.531-2.953 0-0.1016 0.05078-0.1562 0.1562-0.1562h0.4531c0.1016 0 0.1562 0.05469 0.1562 0.1562v8.109c0 0.1055-0.05469 0.1562-0.1562 0.1562h-0.4531c-0.1055 0-0.1562-0.05078-0.1562-0.1562 0-1.863-0.543-2.941-1.625-3.234-0.3047-0.07031-0.625-0.1094-0.9688-0.1094h-6.5c-0.125 0-0.1875 0.0625-0.1875 0.1875v9.234c0 0.9492 0.4297 1.484 1.297 1.609 0.2578 0.04297 0.5234 0.0625 0.7969 0.0625h6.328c1.301 0 2.312-0.5781 3.031-1.734 0.5195-0.8203 0.8359-1.766 0.9531-2.828 0.03125-0.3516 0.2188-0.5312 0.5625-0.5312 0.1562 0 0.2344 0.08594 0.2344 0.25l-0.6406 6.375c-0.07422 0.1797-0.1641 0.2656-0.2656 0.2656h-21.12c-0.1055 0-0.1562-0.05078-0.1562-0.1562z"/>
</g>
<g transform="translate(285.9 39.3)">
<path d="m0.9844 0c-0.1055 0-0.1562-0.125-0.1562-0.375v-0.2344c0-0.1016 0.05078-0.1562 0.1562-0.1562 0.07031 0 0.1914-0.007813 0.3594-0.03125 0.1641-0.01953 0.3359-0.03906 0.5156-0.0625 0.1758-0.03125 0.3359-0.0625 0.4844-0.09375 0.1562-0.03125 0.2656-0.05469 0.3281-0.07812 1.289-0.2812 1.938-1.008 1.938-2.188v-20.03c0-1.094-0.4375-1.863-1.312-2.312-0.5234-0.2812-1.078-0.4219-1.672-0.4219h-0.7188c-0.09375 0-0.1406-0.05078-0.1406-0.1562v-0.4531c0-0.1016 0.07031-0.1562 0.2188-0.1562l10.42-0.2812h1.906c2.238 0.1562 4.113 0.9766 5.625 2.453 1.508 1.469 2.266 3.281 2.266 5.438s-0.8984 3.836-2.688 5.031c-0.5625 0.3672-1.168 0.6953-1.812 0.9844l5.75 9.391c1 1.648 2.344 2.805 4.031 3.469 0.1328 0.04297 0.2031 0.1328 0.2031 0.2656 0 0.3125-0.2109 0.4688-0.625 0.4688-2.844 0-5.109-1.078-6.797-3.234-0.3672-0.4766-0.7305-1.016-1.094-1.609l-4.922-7.703-4.5-0.2188h-0.1562c-0.1875 0-0.2812 0.08984-0.2812 0.2656v8.75c0 0.6992 0.1914 1.219 0.5781 1.562 0.3945 0.3359 1.07 0.5625 2.031 0.6875 0.25 0.04297 0.5547 0.1016 0.9219 0.1719 0.375 0.0625 0.625 0.09375 0.75 0.09375 0.1328 0 0.2031 0.05469 0.2031 0.1562v0.4531c0 0.1055-0.04688 0.1562-0.1406 0.1562zm8.859-26.03c-0.1562 0.01172-0.3203 0.02344-0.4844 0.03125-0.168 0-0.3867 0.007812-0.6562 0.01562-0.2617 0-0.3906 0.1016-0.3906 0.2969v11.5l0.03125 0.5625c0.03906 0.2734 0.1602 0.4141 0.3594 0.4219l1.938 0.1094c3.551 0 5.691-1.258 6.422-3.781 0.25-0.8008 0.375-1.711 0.375-2.734 0-2-0.625-3.57-1.875-4.719-1.25-1.156-2.84-1.734-4.766-1.734-0.1797 0-0.3438 0.007812-0.5 0.01562-0.1484 0-0.2969 0.007813-0.4531 0.01562z"/>
</g>
<g transform="translate(320.6 39.3)">
<path d="m7.562-0.6094c0-0.1016 0.05469-0.1562 0.1719-0.1562h0.5312c1.238 0 2.234-0.2656 2.984-0.7969 0.7578-0.5312 1.141-1.145 1.141-1.844v-21c0-0.2695-0.05859-0.4219-0.1719-0.4531-0.1055-0.03125-0.2344-0.05469-0.3906-0.07812h-7.281c-1.18 0.25-1.949 1.152-2.312 2.703-0.1992 0.8359-0.3203 1.371-0.3594 1.609-0.03125 0.2305-0.1016 0.3438-0.2031 0.3438h-0.3438c-0.07422 0-0.1094-0.01953-0.1094-0.0625v-0.6406l0.7031-5.906c0.07031-0.3945 0.1953-0.5938 0.375-0.5938 0.1758 0 0.3633 0.125 0.5625 0.375 0.207 0.2422 0.5938 0.3594 1.156 0.3594h20.45c0.5391 0 0.8672-0.0625 0.9844-0.1875 0.1133-0.125 0.2188-0.2422 0.3125-0.3594 0.1016-0.125 0.2344-0.1875 0.3906-0.1875 0.1641 0 0.2695 0.0625 0.3125 0.1875 0.03906 0.125 0.07812 0.2617 0.1094 0.4062l0.7031 5.906v0.6406c0 0.04297-0.04297 0.0625-0.125 0.0625h-0.3438c-0.09375 0-0.1641-0.09375-0.2031-0.2812-0.1992-1.258-0.4922-2.258-0.875-3-0.375-0.7383-0.9766-1.195-1.797-1.375h-7.297c-0.1562 0.02344-0.293 0.04688-0.4062 0.07812-0.1055 0.03125-0.1562 0.1836-0.1562 0.4531v21c0 0.6992 0.375 1.312 1.125 1.844 0.7578 0.5312 1.758 0.7969 3 0.7969h0.5469c0.1016 0 0.1562 0.05469 0.1562 0.1562v0.4531c0 0.1055-0.05469 0.1562-0.1562 0.1562h-13.03c-0.1055 0-0.1562-0.05078-0.1562-0.1562z"/>
</g>
</g>
</g>
<g transform="translate(325 168)">
<g fill="#8de1e4">
<g transform="translate(1.017 19.5)">
<path d="m5.594-12.62v0.3594c-0.4062 0.01172-0.7148 0.05859-0.9219 0.1406-0.1992 0.07422-0.3359 0.2148-0.4062 0.4219-0.07422 0.2109-0.1094 0.5312-0.1094 0.9688v8.922c0 0.3984 0.03125 0.6992 0.09375 0.9062 0.0625 0.1992 0.1914 0.3359 0.3906 0.4062 0.1953 0.0625 0.4766 0.09375 0.8438 0.09375h1.172c0.5078 0 0.9375-0.07031 1.281-0.2188 0.3516-0.1445 0.6484-0.3594 0.8906-0.6406 0.2383-0.2812 0.4219-0.6445 0.5469-1.094 0.1328-0.457 0.2383-0.9883 0.3125-1.594h0.4062c-0.04297 0.375-0.0625 0.875-0.0625 1.5 0 0.2305 0.007812 0.5742 0.03125 1.031 0.01953 0.4609 0.05078 0.9336 0.09375 1.422-0.6055-0.01953-1.289-0.03125-2.047-0.03125-0.7617-0.007812-1.438-0.01562-2.031-0.01562h-1.047c-0.4297 0-0.8906 0.007812-1.391 0.01562-0.4922 0-0.9922 0.007812-1.5 0.01562-0.5 0-0.9844 0.007812-1.453 0.01562v-0.3594c0.4062-0.01953 0.707-0.06641 0.9062-0.1406 0.207-0.07031 0.3438-0.2109 0.4062-0.4219 0.07031-0.2188 0.1094-0.5391 0.1094-0.9688v-8.844c0-0.4375-0.03906-0.7578-0.1094-0.9688-0.0625-0.207-0.1992-0.3477-0.4062-0.4219-0.2109-0.08203-0.5117-0.1289-0.9062-0.1406v-0.3594c0.2812 0.01172 0.6328 0.02734 1.062 0.04688 0.4375 0.01172 0.9062 0.01562 1.406 0.01562 0.4453 0 0.8945-0.003906 1.344-0.01562 0.4453-0.01953 0.8125-0.03516 1.094-0.04688z"/>
</g>
<g transform="translate(16.98 19.5)">
<path d="m9.812-12.62c-0.05469 0.4609-0.08984 0.9023-0.1094 1.328-0.01172 0.418-0.01562 0.7344-0.01562 0.9531 0 0.2305 0.003906 0.4492 0.01562 0.6562 0.007813 0.1992 0.01953 0.3594 0.03125 0.4844h-0.4062c-0.08594-0.7578-0.2148-1.359-0.3906-1.797-0.168-0.4375-0.4219-0.75-0.7656-0.9375-0.3359-0.1875-0.8086-0.2812-1.422-0.2812h-1.219c-0.3867 0-0.6797 0.03906-0.875 0.1094-0.1875 0.0625-0.3203 0.1953-0.3906 0.3906-0.07422 0.1992-0.1094 0.5078-0.1094 0.9219v8.984c0 0.3984 0.03516 0.6992 0.1094 0.9062 0.07031 0.1992 0.2031 0.3359 0.3906 0.4062 0.1953 0.0625 0.4883 0.09375 0.875 0.09375h1.156c0.6758 0 1.211-0.1016 1.609-0.3125 0.3945-0.2188 0.6953-0.5703 0.9062-1.062 0.207-0.4883 0.3672-1.156 0.4844-2h0.4062c-0.04297 0.3438-0.0625 0.7969-0.0625 1.359 0 0.2422 0.007812 0.5859 0.03125 1.031 0.01953 0.4492 0.05078 0.9141 0.09375 1.391-0.6055-0.01953-1.289-0.03125-2.047-0.03125-0.7617-0.007812-1.438-0.01562-2.031-0.01562h-1.047c-0.4297 0-0.8906 0.007812-1.391 0.01562-0.4922 0-0.9922 0.007812-1.5 0.01562-0.5 0-0.9844 0.007812-1.453 0.01562v-0.3594c0.4062-0.01953 0.707-0.06641 0.9062-0.1406 0.207-0.07031 0.3438-0.2109 0.4062-0.4219 0.07031-0.2188 0.1094-0.5391 0.1094-0.9688v-8.844c0-0.4375-0.03906-0.7578-0.1094-0.9688-0.0625-0.207-0.1992-0.3477-0.4062-0.4219-0.2109-0.08203-0.5117-0.1289-0.9062-0.1406v-0.3594c0.4688 0.01172 0.9531 0.02344 1.453 0.03125 0.5078 0 1.008 0.007812 1.5 0.01562 0.5 0.01172 0.9609 0.01562 1.391 0.01562h1.047c0.5508 0 1.172-0.003906 1.859-0.01562 0.6953-0.007813 1.32-0.02344 1.875-0.04688zm-2.969 6.094v0.1875 0.1719h-3.219v-0.1719-0.1875zm0.5156-2.344c-0.04297 0.6797-0.0625 1.195-0.0625 1.547 0.007813 0.3555 0.01562 0.6836 0.01562 0.9844 0 0.293 0.003906 0.6211 0.01562 0.9844 0.007813 0.3555 0.03906 0.8711 0.09375 1.547h-0.4219c-0.05469-0.3945-0.1328-0.7695-0.2344-1.125-0.09375-0.3633-0.2617-0.6602-0.5-0.8906-0.2422-0.2266-0.6172-0.3438-1.125-0.3438v-0.3594c0.375 0 0.6719-0.07031 0.8906-0.2188 0.2188-0.1562 0.3828-0.3594 0.5-0.6094 0.125-0.25 0.2109-0.5078 0.2656-0.7812 0.05078-0.2695 0.1016-0.5156 0.1562-0.7344z"/>
</g>
<g transform="translate(33.33 19.5)">
<path d="m6.031-12.69 4.344 11.19c0.1641 0.4375 0.3594 0.7344 0.5781 0.8906s0.4258 0.2422 0.625 0.25v0.3594c-0.293-0.01953-0.6328-0.03125-1.016-0.03125-0.3867-0.007812-0.7773-0.01562-1.172-0.01562-0.5 0-0.9648 0.007812-1.391 0.01562-0.4297 0-0.7734 0.01172-1.031 0.03125v-0.3594c0.6016-0.01953 0.9844-0.1172 1.141-0.2969 0.1641-0.1875 0.1289-0.5859-0.1094-1.203l-3.203-8.656 0.2812-0.3281-2.953 7.734c-0.2188 0.543-0.3516 0.9922-0.3906 1.344-0.04297 0.3555-0.01172 0.6367 0.09375 0.8438 0.1016 0.1992 0.2812 0.3398 0.5312 0.4219 0.25 0.08594 0.5547 0.1328 0.9219 0.1406v0.3594c-0.3555-0.01953-0.7148-0.03125-1.078-0.03125-0.3672-0.007812-0.7109-0.01562-1.031-0.01562-0.2812 0-0.5312 0.007812-0.75 0.01562-0.2188 0-0.418 0.01172-0.5938 0.03125v-0.3594c0.2461-0.0625 0.4922-0.207 0.7344-0.4375 0.25-0.2383 0.4883-0.6445 0.7188-1.219l4.141-10.67h0.2969 0.3125zm1.859 7.547v0.3594h-5.312l0.1875-0.3594z"/>
</g>
<g transform="translate(50.11 19.5)">
<path d="m0.6875-12.62c0.2812 0.01172 0.6328 0.02734 1.062 0.04688 0.4375 0.01172 0.8672 0.01562 1.297 0.01562 0.5703 0 1.113-0.003906 1.625-0.01562 0.5195-0.01953 0.8906-0.03125 1.109-0.03125 1.008 0 1.848 0.1367 2.516 0.4062 0.6758 0.2617 1.176 0.625 1.5 1.094 0.3203 0.4688 0.4844 1.008 0.4844 1.609 0 0.3672-0.07422 0.7578-0.2188 1.172-0.1484 0.4062-0.4062 0.7891-0.7812 1.141-0.3672 0.3438-0.8672 0.6328-1.5 0.8594-0.625 0.2305-1.422 0.3438-2.391 0.3438h-1.719v-0.3594h1.531c0.8008 0 1.41-0.1328 1.828-0.4062 0.4258-0.2695 0.7109-0.625 0.8594-1.062 0.1445-0.4453 0.2188-0.9453 0.2188-1.5 0-0.9375-0.2031-1.66-0.6094-2.172-0.3984-0.5195-1.094-0.7812-2.094-0.7812-0.5117 0-0.8516 0.1055-1.016 0.3125-0.1562 0.1992-0.2344 0.6055-0.2344 1.219v8.844c0 0.4297 0.03516 0.75 0.1094 0.9688 0.07031 0.2109 0.207 0.3516 0.4062 0.4219 0.1953 0.07422 0.4922 0.1211 0.8906 0.1406v0.3594c-0.2812-0.01953-0.6406-0.03125-1.078-0.03125-0.4375-0.007812-0.8828-0.01562-1.328-0.01562-0.5 0-0.9688 0.007812-1.406 0.01562-0.4297 0-0.7812 0.01172-1.062 0.03125v-0.3594c0.4062-0.01953 0.707-0.06641 0.9062-0.1406 0.207-0.07031 0.3438-0.2109 0.4062-0.4219 0.07031-0.2188 0.1094-0.5391 0.1094-0.9688v-8.844c0-0.4375-0.03906-0.7578-0.1094-0.9688-0.0625-0.207-0.1992-0.3477-0.4062-0.4219-0.2109-0.08203-0.5117-0.1289-0.9062-0.1406zm3.016 6.328c0.6133 0.03125 1.102 0.0625 1.469 0.09375 0.3633 0.02344 0.6719 0.04688 0.9219 0.07812 0.25 0.02344 0.4844 0.04688 0.7031 0.07812 0.8828 0.125 1.531 0.3672 1.938 0.7188 0.4141 0.3555 0.7031 0.9023 0.8594 1.641l0.4375 1.812c0.1133 0.5117 0.2344 0.875 0.3594 1.094 0.125 0.2109 0.3125 0.3125 0.5625 0.3125 0.1875-0.007812 0.3438-0.0625 0.4688-0.1562 0.125-0.1016 0.2539-0.2422 0.3906-0.4219l0.25 0.1875c-0.2734 0.375-0.5586 0.6562-0.8594 0.8438-0.293 0.1758-0.6875 0.2656-1.188 0.2656-0.5117 0-0.9492-0.1328-1.312-0.3906-0.3555-0.2695-0.6094-0.7812-0.7656-1.531l-0.3594-1.781c-0.1055-0.5078-0.2266-0.9531-0.3594-1.328-0.125-0.375-0.3086-0.6641-0.5469-0.875-0.2305-0.2188-0.5625-0.3281-1-0.3281h-1.922z"/>
</g>
<g transform="translate(67.28 19.5)">
<path d="m12.09-12.62v0.3594c-0.4062 0.02344-0.7148 0.09375-0.9219 0.2188-0.1992 0.1172-0.3359 0.3086-0.4062 0.5781-0.0625 0.2617-0.09375 0.6367-0.09375 1.125v10.42h-0.2812-0.2969l-7.562-10.98v8.547c0 0.5 0.03516 0.8906 0.1094 1.172 0.07031 0.2812 0.2227 0.4844 0.4531 0.6094 0.2383 0.1172 0.6016 0.1875 1.094 0.2188v0.3594c-0.2305-0.01953-0.5234-0.03125-0.875-0.03125-0.3438-0.007812-0.6719-0.01562-0.9844-0.01562-0.293 0-0.5898 0.007812-0.8906 0.01562-0.293 0-0.5312 0.01172-0.7188 0.03125v-0.3594c0.3828-0.03125 0.6758-0.1016 0.875-0.2188 0.207-0.1133 0.3477-0.3047 0.4219-0.5781 0.07031-0.2695 0.1094-0.6445 0.1094-1.125v-8.453c0-0.4375-0.03906-0.7578-0.1094-0.9688-0.07422-0.207-0.2148-0.3477-0.4219-0.4219-0.1992-0.08203-0.4922-0.1289-0.875-0.1406v-0.3594c0.1875 0.01172 0.4258 0.02734 0.7188 0.04688 0.3008 0.01172 0.5977 0.01562 0.8906 0.01562 0.2695 0 0.5234-0.003906 0.7656-0.01562 0.25-0.01953 0.4727-0.03516 0.6719-0.04688l6.5 9.312v-6.953c0-0.5078-0.04297-0.8984-0.125-1.172-0.07422-0.2812-0.2305-0.4844-0.4688-0.6094-0.2305-0.125-0.5859-0.1953-1.062-0.2188v-0.3594c0.2188 0.01172 0.5039 0.02734 0.8594 0.04688 0.3516 0.01172 0.6875 0.01562 1 0.01562 0.2891 0 0.582-0.003906 0.875-0.01562 0.3008-0.01953 0.5508-0.03516 0.75-0.04688z"/>
</g>
<g transform="translate(85.29 19.5)">
<path d="m5.562-12.62v0.3594c-0.3984 0.01172-0.6953 0.05859-0.8906 0.1406-0.1992 0.07422-0.3359 0.2148-0.4062 0.4219-0.07422 0.2109-0.1094 0.5312-0.1094 0.9688v8.844c0 0.4297 0.03516 0.75 0.1094 0.9688 0.07031 0.2109 0.207 0.3516 0.4062 0.4219 0.1953 0.07422 0.4922 0.1211 0.8906 0.1406v0.3594c-0.2812-0.01953-0.6406-0.03125-1.078-0.03125-0.4375-0.007812-0.8828-0.01562-1.328-0.01562-0.5 0-0.9688 0.007812-1.406 0.01562-0.4297 0-0.7812 0.01172-1.062 0.03125v-0.3594c0.4062-0.01953 0.707-0.06641 0.9062-0.1406 0.207-0.07031 0.3438-0.2109 0.4062-0.4219 0.07031-0.2188 0.1094-0.5391 0.1094-0.9688v-8.844c0-0.4375-0.03906-0.7578-0.1094-0.9688-0.0625-0.207-0.1992-0.3477-0.4062-0.4219-0.2109-0.08203-0.5117-0.1289-0.9062-0.1406v-0.3594c0.2812 0.01172 0.6328 0.02734 1.062 0.04688 0.4375 0.01172 0.9062 0.01562 1.406 0.01562 0.4453 0 0.8906-0.003906 1.328-0.01562 0.4375-0.01953 0.7969-0.03516 1.078-0.04688z"/>
</g>
<g transform="translate(96.89 19.5)">
<path d="m12.09-12.62v0.3594c-0.4062 0.02344-0.7148 0.09375-0.9219 0.2188-0.1992 0.1172-0.3359 0.3086-0.4062 0.5781-0.0625 0.2617-0.09375 0.6367-0.09375 1.125v10.42h-0.2812-0.2969l-7.562-10.98v8.547c0 0.5 0.03516 0.8906 0.1094 1.172 0.07031 0.2812 0.2227 0.4844 0.4531 0.6094 0.2383 0.1172 0.6016 0.1875 1.094 0.2188v0.3594c-0.2305-0.01953-0.5234-0.03125-0.875-0.03125-0.3438-0.007812-0.6719-0.01562-0.9844-0.01562-0.293 0-0.5898 0.007812-0.8906 0.01562-0.293 0-0.5312 0.01172-0.7188 0.03125v-0.3594c0.3828-0.03125 0.6758-0.1016 0.875-0.2188 0.207-0.1133 0.3477-0.3047 0.4219-0.5781 0.07031-0.2695 0.1094-0.6445 0.1094-1.125v-8.453c0-0.4375-0.03906-0.7578-0.1094-0.9688-0.07422-0.207-0.2148-0.3477-0.4219-0.4219-0.1992-0.08203-0.4922-0.1289-0.875-0.1406v-0.3594c0.1875 0.01172 0.4258 0.02734 0.7188 0.04688 0.3008 0.01172 0.5977 0.01562 0.8906 0.01562 0.2695 0 0.5234-0.003906 0.7656-0.01562 0.25-0.01953 0.4727-0.03516 0.6719-0.04688l6.5 9.312v-6.953c0-0.5078-0.04297-0.8984-0.125-1.172-0.07422-0.2812-0.2305-0.4844-0.4688-0.6094-0.2305-0.125-0.5859-0.1953-1.062-0.2188v-0.3594c0.2188 0.01172 0.5039 0.02734 0.8594 0.04688 0.3516 0.01172 0.6875 0.01562 1 0.01562 0.2891 0 0.582-0.003906 0.875-0.01562 0.3008-0.01953 0.5508-0.03516 0.75-0.04688z"/>
</g>
<g transform="translate(114.9 19.5)">
<path d="m6.875-12.88c0.7891 0 1.426 0.1211 1.906 0.3594 0.4883 0.2305 0.9375 0.4961 1.344 0.7969 0.1562 0.125 0.2734 0.1875 0.3594 0.1875 0.2266 0 0.375-0.3633 0.4375-1.094h0.4219c-0.03125 0.4609-0.05469 1.008-0.0625 1.641-0.01172 0.6367-0.01562 1.48-0.01562 2.531h-0.4062c-0.08594-0.5703-0.1953-1.098-0.3281-1.578-0.1367-0.4883-0.3711-0.9062-0.7031-1.25-0.3242-0.3828-0.7461-0.6797-1.266-0.8906-0.5117-0.2188-1.039-0.3281-1.578-0.3281-0.6172 0-1.164 0.1523-1.641 0.4531-0.4688 0.3047-0.8711 0.7344-1.203 1.297-0.3242 0.5625-0.5742 1.227-0.75 1.984-0.168 0.75-0.25 1.574-0.25 2.469 0 2.148 0.3281 3.715 0.9844 4.703 0.6562 0.9922 1.648 1.484 2.984 1.484 0.3828 0 0.7109-0.05078 0.9844-0.1562 0.2812-0.1016 0.5039-0.2109 0.6719-0.3281 0.207-0.1328 0.3359-0.2695 0.3906-0.4062 0.0625-0.1445 0.09375-0.3281 0.09375-0.5469v-1.734c0-0.5078-0.04688-0.8828-0.1406-1.125-0.08594-0.25-0.2578-0.4141-0.5156-0.5-0.2617-0.09375-0.6406-0.1445-1.141-0.1562v-0.3594c0.2266 0.01172 0.4922 0.02344 0.7969 0.03125 0.3125 0 0.6328 0.007813 0.9688 0.01562 0.3438 0.01172 0.6484 0.01562 0.9219 0.01562 0.4258 0 0.8164-0.003906 1.172-0.01562 0.3516-0.01953 0.6406-0.03516 0.8594-0.04688v0.3594c-0.25 0.01172-0.4375 0.05469-0.5625 0.125-0.125 0.07422-0.2109 0.2188-0.25 0.4375-0.04297 0.2109-0.0625 0.5312-0.0625 0.9688v3.531h-0.3438c-0.02344-0.1953-0.07031-0.4141-0.1406-0.6562-0.07422-0.2383-0.1875-0.3594-0.3438-0.3594-0.08594 0-0.1719 0.02344-0.2656 0.0625-0.08594 0.03125-0.2344 0.1211-0.4531 0.2656-0.418 0.2812-0.8555 0.5117-1.312 0.6875-0.4492 0.1641-0.9531 0.25-1.516 0.25-1.273 0-2.359-0.25-3.266-0.75-0.9062-0.5078-1.594-1.242-2.062-2.203-0.4688-0.957-0.7031-2.094-0.7031-3.406 0-1.383 0.2539-2.582 0.7656-3.594 0.5195-1.008 1.227-1.789 2.125-2.344 0.9062-0.5508 1.938-0.8281 3.094-0.8281z"/>
</g>
<g transform="translate(133 19.5)"/>
<g transform="translate(142.7 19.5)">
<path d="m5.609-12.56c0.457 0 0.832 0.04688 1.125 0.1406 0.2891 0.08594 0.5352 0.1953 0.7344 0.3281 0.1641 0.1172 0.3047 0.2461 0.4219 0.3906 0.1133 0.1367 0.2031 0.2812 0.2656 0.4375 0.07031 0.1562 0.1094 0.3203 0.1094 0.4844 0 0.3125-0.1172 0.5625-0.3438 0.75-0.2305 0.1875-0.4844 0.2812-0.7656 0.2812-0.293 0-0.543-0.08203-0.75-0.25-0.2109-0.1641-0.3125-0.4062-0.3125-0.7188 0-0.2695 0.09375-0.5078 0.2812-0.7188 0.1953-0.207 0.4375-0.3281 0.7188-0.3594-0.0625-0.1328-0.2109-0.25-0.4375-0.3438-0.2305-0.09375-0.5117-0.1406-0.8438-0.1406-0.6172 0-1.125 0.1875-1.531 0.5625-0.3984 0.3672-0.5938 0.9062-0.5938 1.625 0 0.3125 0.05469 0.6367 0.1719 0.9688 0.1133 0.3359 0.3359 0.668 0.6719 1 0.1953-0.03906 0.3945-0.07031 0.5938-0.09375 0.1953-0.01953 0.3516-0.03125 0.4688-0.03125 0.2188 0 0.3906 0.04297 0.5156 0.125 0.125 0.07422 0.1875 0.1797 0.1875 0.3125 0 0.1172-0.04688 0.2031-0.1406 0.2656-0.09375 0.05469-0.2148 0.07812-0.3594 0.07812-0.2305 0-0.4648-0.04688-0.7031-0.1406-0.2305-0.1016-0.4141-0.1914-0.5469-0.2656-0.6562 0.2188-1.184 0.5586-1.578 1.016-0.3984 0.4609-0.5938 1.09-0.5938 1.891 0 0.8047 0.2109 1.48 0.6406 2.031 0.4258 0.5547 1.004 0.9766 1.734 1.266 0.7383 0.2812 1.586 0.4219 2.547 0.4219 0.6133 0 1.207-0.06641 1.781-0.2031 0.5703-0.1445 1.078-0.3594 1.516-0.6406 0.4453-0.2812 0.8008-0.6133 1.062-1 0.2578-0.3945 0.3906-0.8477 0.3906-1.359 0-0.2188-0.04297-0.4922-0.125-0.8281-0.08594-0.332-0.2617-0.6562-0.5312-0.9688-0.2617-0.3203-0.6719-0.582-1.234-0.7812l0.1875-0.1719c0.7891 0.25 1.363 0.6641 1.719 1.234 0.3633 0.5742 0.5469 1.215 0.5469 1.922 0 0.75-0.2305 1.461-0.6875 2.125-0.4609 0.6562-1.109 1.184-1.953 1.578-0.8438 0.3945-1.859 0.5938-3.047 0.5938-0.8438 0-1.637-0.1016-2.375-0.2969-0.7305-0.207-1.371-0.5039-1.922-0.8906-0.543-0.3828-0.9688-0.8477-1.281-1.391-0.3047-0.5508-0.4531-1.172-0.4531-1.859 0-0.6562 0.125-1.211 0.375-1.672 0.2578-0.457 0.5781-0.8359 0.9531-1.141 0.3828-0.3008 0.7656-0.5312 1.141-0.6875 0.3828-0.1641 0.6953-0.2734 0.9375-0.3281-0.3984-0.1641-0.7344-0.3633-1.016-0.5938-0.2734-0.2383-0.4844-0.5039-0.6406-0.7969-0.1484-0.2891-0.2188-0.5938-0.2188-0.9062s0.07812-0.6016 0.2344-0.875c0.1562-0.2812 0.3672-0.5234 0.6406-0.7344 0.2812-0.207 0.6133-0.3633 1-0.4688 0.3945-0.1133 0.832-0.1719 1.312-0.1719zm6.656-0.3125c0.7695 0 1.41 0.2148 1.922 0.6406 0.5078 0.4297 0.7656 1.031 0.7656 1.812 0 0.4688-0.1016 0.875-0.2969 1.219-0.1875 0.3438-0.4609 0.6406-0.8125 0.8906-0.3555 0.25-0.7617 0.4531-1.219 0.6094-0.2422 0.1055-0.5547 0.2188-0.9375 0.3438-0.375 0.125-0.7773 0.2578-1.203 0.3906-0.4297 0.125-0.8359 0.25-1.219 0.375-0.3867 0.1172-0.7031 0.2188-0.9531 0.3125-0.5938 0.1797-1.078 0.3906-1.453 0.6406-0.3672 0.2422-0.5469 0.5625-0.5469 0.9688 0 0.3125 0.08594 0.5781 0.2656 0.7969 0.1875 0.2109 0.4141 0.3672 0.6875 0.4688 0.2695 0.1055 0.5312 0.1562 0.7812 0.1562 0.09375 0 0.207-0.007812 0.3438-0.03125 0.1445-0.01953 0.2734-0.05078 0.3906-0.09375 0.1133-0.05078 0.1797-0.1133 0.2031-0.1875-0.2305-0.05078-0.4336-0.1562-0.6094-0.3125-0.168-0.1641-0.25-0.3945-0.25-0.6875 0-0.3125 0.1094-0.5547 0.3281-0.7344 0.2266-0.1758 0.5-0.2656 0.8125-0.2656 0.332 0 0.5977 0.1016 0.7969 0.2969 0.1953 0.1875 0.2969 0.4336 0.2969 0.7344 0 0.3438-0.1172 0.6367-0.3438 0.875-0.2188 0.2422-0.5078 0.418-0.8594 0.5312-0.3438 0.1172-0.6992 0.1719-1.062 0.1719-0.375 0-0.7461-0.07031-1.109-0.2188-0.3672-0.1562-0.668-0.3906-0.9062-0.7031-0.2305-0.3125-0.3438-0.7227-0.3438-1.234 0-0.4883 0.1133-0.9102 0.3438-1.266 0.2266-0.3516 0.5625-0.6602 1-0.9219 0.4453-0.2578 0.9883-0.4727 1.625-0.6406 0.3203-0.1016 0.7031-0.2109 1.141-0.3281 0.4453-0.125 0.8984-0.2539 1.359-0.3906 0.4688-0.1328 0.8984-0.2852 1.297-0.4531 0.6758-0.2578 1.16-0.5234 1.453-0.7969 0.3008-0.2812 0.4531-0.5938 0.4531-0.9375s-0.1016-0.6406-0.2969-0.8906c-0.1875-0.2578-0.4375-0.4688-0.75-0.625s-0.6484-0.2344-1-0.2344c-0.1367 0-0.25 0.01172-0.3438 0.03125-0.08594 0.02344-0.1406 0.0625-0.1719 0.125 0.1953 0.08594 0.3477 0.2148 0.4531 0.3906 0.1133 0.1797 0.1719 0.3516 0.1719 0.5156 0 0.293-0.1172 0.5273-0.3438 0.7031-0.2305 0.168-0.4961 0.25-0.7969 0.25-0.293 0-0.5547-0.08203-0.7812-0.25-0.2188-0.1641-0.3281-0.4062-0.3281-0.7188s0.09766-0.5664 0.2969-0.7656c0.207-0.1953 0.4688-0.3359 0.7812-0.4219 0.3125-0.09375 0.6328-0.1406 0.9688-0.1406z"/>
</g>
<g transform="translate(163.3 19.5)"/>
<g transform="translate(173 19.5)">
<path d="m0.6875-12.62c0.2812 0.01172 0.6328 0.02734 1.062 0.04688 0.4375 0.01172 0.8672 0.01562 1.297 0.01562 0.5703 0 1.113-0.003906 1.625-0.01562 0.5195-0.01953 0.8906-0.03125 1.109-0.03125 1.008 0 1.848 0.1367 2.516 0.4062 0.6758 0.2617 1.176 0.625 1.5 1.094 0.3203 0.4688 0.4844 1.008 0.4844 1.609 0 0.3672-0.07422 0.7578-0.2188 1.172-0.1484 0.4062-0.4062 0.7891-0.7812 1.141-0.3672 0.3438-0.8672 0.6328-1.5 0.8594-0.625 0.2305-1.422 0.3438-2.391 0.3438h-1.719v-0.3594h1.531c0.8008 0 1.41-0.1328 1.828-0.4062 0.4258-0.2695 0.7109-0.625 0.8594-1.062 0.1445-0.4453 0.2188-0.9453 0.2188-1.5 0-0.9375-0.2031-1.66-0.6094-2.172-0.3984-0.5195-1.094-0.7812-2.094-0.7812-0.5117 0-0.8516 0.1055-1.016 0.3125-0.1562 0.1992-0.2344 0.6055-0.2344 1.219v8.844c0 0.4297 0.03516 0.75 0.1094 0.9688 0.07031 0.2109 0.207 0.3516 0.4062 0.4219 0.1953 0.07422 0.4922 0.1211 0.8906 0.1406v0.3594c-0.2812-0.01953-0.6406-0.03125-1.078-0.03125-0.4375-0.007812-0.8828-0.01562-1.328-0.01562-0.5 0-0.9688 0.007812-1.406 0.01562-0.4297 0-0.7812 0.01172-1.062 0.03125v-0.3594c0.4062-0.01953 0.707-0.06641 0.9062-0.1406 0.207-0.07031 0.3438-0.2109 0.4062-0.4219 0.07031-0.2188 0.1094-0.5391 0.1094-0.9688v-8.844c0-0.4375-0.03906-0.7578-0.1094-0.9688-0.0625-0.207-0.1992-0.3477-0.4062-0.4219-0.2109-0.08203-0.5117-0.1289-0.9062-0.1406zm3.016 6.328c0.6133 0.03125 1.102 0.0625 1.469 0.09375 0.3633 0.02344 0.6719 0.04688 0.9219 0.07812 0.25 0.02344 0.4844 0.04688 0.7031 0.07812 0.8828 0.125 1.531 0.3672 1.938 0.7188 0.4141 0.3555 0.7031 0.9023 0.8594 1.641l0.4375 1.812c0.1133 0.5117 0.2344 0.875 0.3594 1.094 0.125 0.2109 0.3125 0.3125 0.5625 0.3125 0.1875-0.007812 0.3438-0.0625 0.4688-0.1562 0.125-0.1016 0.2539-0.2422 0.3906-0.4219l0.25 0.1875c-0.2734 0.375-0.5586 0.6562-0.8594 0.8438-0.293 0.1758-0.6875 0.2656-1.188 0.2656-0.5117 0-0.9492-0.1328-1.312-0.3906-0.3555-0.2695-0.6094-0.7812-0.7656-1.531l-0.3594-1.781c-0.1055-0.5078-0.2266-0.9531-0.3594-1.328-0.125-0.375-0.3086-0.6641-0.5469-0.875-0.2305-0.2188-0.5625-0.3281-1-0.3281h-1.922z"/>
</g>
<g transform="translate(190.2 19.5)">
<path d="m9.812-12.62c-0.05469 0.4609-0.08984 0.9023-0.1094 1.328-0.01172 0.418-0.01562 0.7344-0.01562 0.9531 0 0.2305 0.003906 0.4492 0.01562 0.6562 0.007813 0.1992 0.01953 0.3594 0.03125 0.4844h-0.4062c-0.08594-0.7578-0.2148-1.359-0.3906-1.797-0.168-0.4375-0.4219-0.75-0.7656-0.9375-0.3359-0.1875-0.8086-0.2812-1.422-0.2812h-1.219c-0.3867 0-0.6797 0.03906-0.875 0.1094-0.1875 0.0625-0.3203 0.1953-0.3906 0.3906-0.07422 0.1992-0.1094 0.5078-0.1094 0.9219v8.984c0 0.3984 0.03516 0.6992 0.1094 0.9062 0.07031 0.1992 0.2031 0.3359 0.3906 0.4062 0.1953 0.0625 0.4883 0.09375 0.875 0.09375h1.156c0.6758 0 1.211-0.1016 1.609-0.3125 0.3945-0.2188 0.6953-0.5703 0.9062-1.062 0.207-0.4883 0.3672-1.156 0.4844-2h0.4062c-0.04297 0.3438-0.0625 0.7969-0.0625 1.359 0 0.2422 0.007812 0.5859 0.03125 1.031 0.01953 0.4492 0.05078 0.9141 0.09375 1.391-0.6055-0.01953-1.289-0.03125-2.047-0.03125-0.7617-0.007812-1.438-0.01562-2.031-0.01562h-1.047c-0.4297 0-0.8906 0.007812-1.391 0.01562-0.4922 0-0.9922 0.007812-1.5 0.01562-0.5 0-0.9844 0.007812-1.453 0.01562v-0.3594c0.4062-0.01953 0.707-0.06641 0.9062-0.1406 0.207-0.07031 0.3438-0.2109 0.4062-0.4219 0.07031-0.2188 0.1094-0.5391 0.1094-0.9688v-8.844c0-0.4375-0.03906-0.7578-0.1094-0.9688-0.0625-0.207-0.1992-0.3477-0.4062-0.4219-0.2109-0.08203-0.5117-0.1289-0.9062-0.1406v-0.3594c0.4688 0.01172 0.9531 0.02344 1.453 0.03125 0.5078 0 1.008 0.007812 1.5 0.01562 0.5 0.01172 0.9609 0.01562 1.391 0.01562h1.047c0.5508 0 1.172-0.003906 1.859-0.01562 0.6953-0.007813 1.32-0.02344 1.875-0.04688zm-2.969 6.094v0.1875 0.1719h-3.219v-0.1719-0.1875zm0.5156-2.344c-0.04297 0.6797-0.0625 1.195-0.0625 1.547 0.007813 0.3555 0.01562 0.6836 0.01562 0.9844 0 0.293 0.003906 0.6211 0.01562 0.9844 0.007813 0.3555 0.03906 0.8711 0.09375 1.547h-0.4219c-0.05469-0.3945-0.1328-0.7695-0.2344-1.125-0.09375-0.3633-0.2617-0.6602-0.5-0.8906-0.2422-0.2266-0.6172-0.3438-1.125-0.3438v-0.3594c0.375 0 0.6719-0.07031 0.8906-0.2188 0.2188-0.1562 0.3828-0.3594 0.5-0.6094 0.125-0.25 0.2109-0.5078 0.2656-0.7812 0.05078-0.2695 0.1016-0.5156 0.1562-0.7344z"/>
</g>
<g transform="translate(206.5 19.5)">
<path d="m10.86-12.62c-0.05469 0.5-0.08984 0.9844-0.1094 1.453-0.01172 0.4688-0.01562 0.8281-0.01562 1.078 0 0.2734 0.003906 0.5312 0.01562 0.7812 0.007812 0.25 0.01953 0.4648 0.03125 0.6406h-0.4062c-0.1172-0.8828-0.2734-1.582-0.4688-2.094-0.1992-0.5078-0.4844-0.8789-0.8594-1.109-0.3672-0.2266-0.8906-0.3438-1.578-0.3438h-0.7656v10.17c0 0.4688 0.03906 0.8242 0.125 1.062 0.09375 0.2422 0.2695 0.4023 0.5312 0.4844 0.2695 0.07422 0.6641 0.1211 1.188 0.1406v0.3594c-0.3359-0.01953-0.7656-0.03125-1.297-0.03125-0.5234-0.007812-1.055-0.01562-1.594-0.01562-0.5742 0-1.117 0.007812-1.625 0.01562-0.5 0-0.9062 0.01172-1.219 0.03125v-0.3594c0.5078-0.01953 0.8945-0.06641 1.156-0.1406 0.2695-0.08203 0.4531-0.2422 0.5469-0.4844 0.09375-0.2383 0.1406-0.5938 0.1406-1.062v-10.17h-0.7812c-0.668 0-1.195 0.1172-1.578 0.3438-0.375 0.2305-0.6641 0.6016-0.8594 1.109-0.1875 0.5117-0.3398 1.211-0.4531 2.094h-0.4062c0.01953-0.1758 0.03125-0.3906 0.03125-0.6406 0.007813-0.25 0.01562-0.5078 0.01562-0.7812 0-0.25-0.01172-0.6094-0.03125-1.078-0.01172-0.4688-0.04297-0.9531-0.09375-1.453 0.5078 0.01172 1.066 0.02734 1.672 0.04688 0.6016 0.01172 1.211 0.01562 1.828 0.01562h1.688 1.656c0.6016 0 1.211-0.003906 1.828-0.01562 0.625-0.01953 1.188-0.03516 1.688-0.04688z"/>
</g>
<g transform="translate(223.2 19.5)">
<path d="m0.6875-12.62c0.2812 0.01172 0.6328 0.02734 1.062 0.04688 0.4375 0.01172 0.8672 0.01562 1.297 0.01562 0.5703 0 1.113-0.003906 1.625-0.01562 0.5195-0.01953 0.8906-0.03125 1.109-0.03125 1.008 0 1.848 0.1367 2.516 0.4062 0.6758 0.2617 1.176 0.625 1.5 1.094 0.3203 0.4688 0.4844 1.008 0.4844 1.609 0 0.3672-0.07422 0.7578-0.2188 1.172-0.1484 0.4062-0.4062 0.7891-0.7812 1.141-0.3672 0.3438-0.8672 0.6328-1.5 0.8594-0.625 0.2305-1.422 0.3438-2.391 0.3438h-1.719v-0.3594h1.531c0.8008 0 1.41-0.1328 1.828-0.4062 0.4258-0.2695 0.7109-0.625 0.8594-1.062 0.1445-0.4453 0.2188-0.9453 0.2188-1.5 0-0.9375-0.2031-1.66-0.6094-2.172-0.3984-0.5195-1.094-0.7812-2.094-0.7812-0.5117 0-0.8516 0.1055-1.016 0.3125-0.1562 0.1992-0.2344 0.6055-0.2344 1.219v8.844c0 0.4297 0.03516 0.75 0.1094 0.9688 0.07031 0.2109 0.207 0.3516 0.4062 0.4219 0.1953 0.07422 0.4922 0.1211 0.8906 0.1406v0.3594c-0.2812-0.01953-0.6406-0.03125-1.078-0.03125-0.4375-0.007812-0.8828-0.01562-1.328-0.01562-0.5 0-0.9688 0.007812-1.406 0.01562-0.4297 0-0.7812 0.01172-1.062 0.03125v-0.3594c0.4062-0.01953 0.707-0.06641 0.9062-0.1406 0.207-0.07031 0.3438-0.2109 0.4062-0.4219 0.07031-0.2188 0.1094-0.5391 0.1094-0.9688v-8.844c0-0.4375-0.03906-0.7578-0.1094-0.9688-0.0625-0.207-0.1992-0.3477-0.4062-0.4219-0.2109-0.08203-0.5117-0.1289-0.9062-0.1406zm3.016 6.328c0.6133 0.03125 1.102 0.0625 1.469 0.09375 0.3633 0.02344 0.6719 0.04688 0.9219 0.07812 0.25 0.02344 0.4844 0.04688 0.7031 0.07812 0.8828 0.125 1.531 0.3672 1.938 0.7188 0.4141 0.3555 0.7031 0.9023 0.8594 1.641l0.4375 1.812c0.1133 0.5117 0.2344 0.875 0.3594 1.094 0.125 0.2109 0.3125 0.3125 0.5625 0.3125 0.1875-0.007812 0.3438-0.0625 0.4688-0.1562 0.125-0.1016 0.2539-0.2422 0.3906-0.4219l0.25 0.1875c-0.2734 0.375-0.5586 0.6562-0.8594 0.8438-0.293 0.1758-0.6875 0.2656-1.188 0.2656-0.5117 0-0.9492-0.1328-1.312-0.3906-0.3555-0.2695-0.6094-0.7812-0.7656-1.531l-0.3594-1.781c-0.1055-0.5078-0.2266-0.9531-0.3594-1.328-0.125-0.375-0.3086-0.6641-0.5469-0.875-0.2305-0.2188-0.5625-0.3281-1-0.3281h-1.922z"/>
</g>
<g transform="translate(240.4 19.5)">
<path d="m9.812-12.62c-0.05469 0.4609-0.08984 0.9023-0.1094 1.328-0.01172 0.418-0.01562 0.7344-0.01562 0.9531 0 0.2305 0.003906 0.4492 0.01562 0.6562 0.007813 0.1992 0.01953 0.3594 0.03125 0.4844h-0.4062c-0.08594-0.7578-0.2148-1.359-0.3906-1.797-0.168-0.4375-0.4219-0.75-0.7656-0.9375-0.3359-0.1875-0.8086-0.2812-1.422-0.2812h-1.219c-0.3867 0-0.6797 0.03906-0.875 0.1094-0.1875 0.0625-0.3203 0.1953-0.3906 0.3906-0.07422 0.1992-0.1094 0.5078-0.1094 0.9219v8.984c0 0.3984 0.03516 0.6992 0.1094 0.9062 0.07031 0.1992 0.2031 0.3359 0.3906 0.4062 0.1953 0.0625 0.4883 0.09375 0.875 0.09375h1.156c0.6758 0 1.211-0.1016 1.609-0.3125 0.3945-0.2188 0.6953-0.5703 0.9062-1.062 0.207-0.4883 0.3672-1.156 0.4844-2h0.4062c-0.04297 0.3438-0.0625 0.7969-0.0625 1.359 0 0.2422 0.007812 0.5859 0.03125 1.031 0.01953 0.4492 0.05078 0.9141 0.09375 1.391-0.6055-0.01953-1.289-0.03125-2.047-0.03125-0.7617-0.007812-1.438-0.01562-2.031-0.01562h-1.047c-0.4297 0-0.8906 0.007812-1.391 0.01562-0.4922 0-0.9922 0.007812-1.5 0.01562-0.5 0-0.9844 0.007812-1.453 0.01562v-0.3594c0.4062-0.01953 0.707-0.06641 0.9062-0.1406 0.207-0.07031 0.3438-0.2109 0.4062-0.4219 0.07031-0.2188 0.1094-0.5391 0.1094-0.9688v-8.844c0-0.4375-0.03906-0.7578-0.1094-0.9688-0.0625-0.207-0.1992-0.3477-0.4062-0.4219-0.2109-0.08203-0.5117-0.1289-0.9062-0.1406v-0.3594c0.4688 0.01172 0.9531 0.02344 1.453 0.03125 0.5078 0 1.008 0.007812 1.5 0.01562 0.5 0.01172 0.9609 0.01562 1.391 0.01562h1.047c0.5508 0 1.172-0.003906 1.859-0.01562 0.6953-0.007813 1.32-0.02344 1.875-0.04688zm-2.969 6.094v0.1875 0.1719h-3.219v-0.1719-0.1875zm0.5156-2.344c-0.04297 0.6797-0.0625 1.195-0.0625 1.547 0.007813 0.3555 0.01562 0.6836 0.01562 0.9844 0 0.293 0.003906 0.6211 0.01562 0.9844 0.007813 0.3555 0.03906 0.8711 0.09375 1.547h-0.4219c-0.05469-0.3945-0.1328-0.7695-0.2344-1.125-0.09375-0.3633-0.2617-0.6602-0.5-0.8906-0.2422-0.2266-0.6172-0.3438-1.125-0.3438v-0.3594c0.375 0 0.6719-0.07031 0.8906-0.2188 0.2188-0.1562 0.3828-0.3594 0.5-0.6094 0.125-0.25 0.2109-0.5078 0.2656-0.7812 0.05078-0.2695 0.1016-0.5156 0.1562-0.7344z"/>
</g>
<g transform="translate(256.7 19.5)">
<path d="m6.031-12.69 4.344 11.19c0.1641 0.4375 0.3594 0.7344 0.5781 0.8906s0.4258 0.2422 0.625 0.25v0.3594c-0.293-0.01953-0.6328-0.03125-1.016-0.03125-0.3867-0.007812-0.7773-0.01562-1.172-0.01562-0.5 0-0.9648 0.007812-1.391 0.01562-0.4297 0-0.7734 0.01172-1.031 0.03125v-0.3594c0.6016-0.01953 0.9844-0.1172 1.141-0.2969 0.1641-0.1875 0.1289-0.5859-0.1094-1.203l-3.203-8.656 0.2812-0.3281-2.953 7.734c-0.2188 0.543-0.3516 0.9922-0.3906 1.344-0.04297 0.3555-0.01172 0.6367 0.09375 0.8438 0.1016 0.1992 0.2812 0.3398 0.5312 0.4219 0.25 0.08594 0.5547 0.1328 0.9219 0.1406v0.3594c-0.3555-0.01953-0.7148-0.03125-1.078-0.03125-0.3672-0.007812-0.7109-0.01562-1.031-0.01562-0.2812 0-0.5312 0.007812-0.75 0.01562-0.2188 0-0.418 0.01172-0.5938 0.03125v-0.3594c0.2461-0.0625 0.4922-0.207 0.7344-0.4375 0.25-0.2383 0.4883-0.6445 0.7188-1.219l4.141-10.67h0.2969 0.3125zm1.859 7.547v0.3594h-5.312l0.1875-0.3594z"/>
</g>
<g transform="translate(273.5 19.5)">
<path d="m10.86-12.62c-0.05469 0.5-0.08984 0.9844-0.1094 1.453-0.01172 0.4688-0.01562 0.8281-0.01562 1.078 0 0.2734 0.003906 0.5312 0.01562 0.7812 0.007812 0.25 0.01953 0.4648 0.03125 0.6406h-0.4062c-0.1172-0.8828-0.2734-1.582-0.4688-2.094-0.1992-0.5078-0.4844-0.8789-0.8594-1.109-0.3672-0.2266-0.8906-0.3438-1.578-0.3438h-0.7656v10.17c0 0.4688 0.03906 0.8242 0.125 1.062 0.09375 0.2422 0.2695 0.4023 0.5312 0.4844 0.2695 0.07422 0.6641 0.1211 1.188 0.1406v0.3594c-0.3359-0.01953-0.7656-0.03125-1.297-0.03125-0.5234-0.007812-1.055-0.01562-1.594-0.01562-0.5742 0-1.117 0.007812-1.625 0.01562-0.5 0-0.9062 0.01172-1.219 0.03125v-0.3594c0.5078-0.01953 0.8945-0.06641 1.156-0.1406 0.2695-0.08203 0.4531-0.2422 0.5469-0.4844 0.09375-0.2383 0.1406-0.5938 0.1406-1.062v-10.17h-0.7812c-0.668 0-1.195 0.1172-1.578 0.3438-0.375 0.2305-0.6641 0.6016-0.8594 1.109-0.1875 0.5117-0.3398 1.211-0.4531 2.094h-0.4062c0.01953-0.1758 0.03125-0.3906 0.03125-0.6406 0.007813-0.25 0.01562-0.5078 0.01562-0.7812 0-0.25-0.01172-0.6094-0.03125-1.078-0.01172-0.4688-0.04297-0.9531-0.09375-1.453 0.5078 0.01172 1.066 0.02734 1.672 0.04688 0.6016 0.01172 1.211 0.01562 1.828 0.01562h1.688 1.656c0.6016 0 1.211-0.003906 1.828-0.01562 0.625-0.01953 1.188-0.03516 1.688-0.04688z"/>
</g>
<g transform="translate(290.2 19.5)">
<path d="m4.719-12.84c0.6328 0 1.117 0.07422 1.453 0.2188 0.332 0.1484 0.625 0.3047 0.875 0.4688 0.1328 0.08594 0.25 0.1484 0.3438 0.1875 0.09375 0.04297 0.1758 0.0625 0.25 0.0625 0.125 0 0.2109-0.0625 0.2656-0.1875 0.05078-0.1328 0.09766-0.332 0.1406-0.5938h0.4062c-0.01172 0.2109-0.02734 0.4609-0.04688 0.75-0.02344 0.293-0.03906 0.6797-0.04688 1.156v1.859h-0.4062c-0.04297-0.5703-0.1719-1.129-0.3906-1.672-0.2188-0.5508-0.543-1-0.9688-1.344-0.418-0.3516-0.9531-0.5312-1.609-0.5312-0.6055 0-1.105 0.1836-1.5 0.5469-0.3984 0.3672-0.5938 0.8438-0.5938 1.438 0 0.5234 0.1289 0.9609 0.3906 1.312 0.2578 0.3555 0.6172 0.6836 1.078 0.9844 0.457 0.3047 0.9766 0.6367 1.562 1 0.5938 0.3867 1.125 0.7656 1.594 1.141 0.4766 0.375 0.8516 0.7891 1.125 1.234 0.2812 0.4492 0.4219 0.9961 0.4219 1.641 0 0.7734-0.1836 1.414-0.5469 1.922-0.3672 0.5-0.8516 0.875-1.453 1.125-0.6055 0.2461-1.273 0.375-2 0.375-0.668 0-1.199-0.07422-1.594-0.2188-0.3867-0.1328-0.7148-0.2812-0.9844-0.4375-0.2734-0.1641-0.4766-0.25-0.6094-0.25-0.125 0-0.2148 0.07031-0.2656 0.2031-0.05469 0.125-0.09375 0.3203-0.125 0.5781h-0.4219c0.03125-0.2578 0.04688-0.5625 0.04688-0.9062 0.007813-0.3516 0.01562-0.8164 0.01562-1.391 0.007812-0.5703 0.01562-1.289 0.01562-2.156h0.4062c0.05078 0.7305 0.1875 1.418 0.4062 2.062 0.2188 0.6484 0.5547 1.164 1.016 1.547 0.457 0.3867 1.066 0.5781 1.828 0.5781 0.4062 0 0.7812-0.07812 1.125-0.2344s0.6172-0.3984 0.8281-0.7344c0.2188-0.332 0.3281-0.7578 0.3281-1.281 0-0.4883-0.1211-0.9141-0.3594-1.281-0.2305-0.3633-0.5469-0.7031-0.9531-1.016-0.4062-0.3203-0.8867-0.6484-1.438-0.9844-0.5547-0.3516-1.074-0.707-1.562-1.062-0.4922-0.3633-0.8828-0.7812-1.172-1.25-0.293-0.4766-0.4375-1.047-0.4375-1.703 0-0.7188 0.1641-1.305 0.5-1.766 0.3438-0.4688 0.7852-0.8164 1.328-1.047 0.5391-0.2266 1.117-0.3438 1.734-0.3438z"/>
</g>
</g>
</g>
</svg>
